<svg width="249" height="37" viewBox="0 0 249 37" fill="none" xmlns="http://www.w3.org/2000/svg">
<path d="M35.3 12.9C35.5333 12.3 35.8667 11.85 36.3 11.55C36.7667 11.25 37.2667 11.1 37.8 11.1C38.5667 11.1 39.25 11.3667 39.85 11.9C40.4833 12.4 40.8 13.0333 40.8 13.8C40.8 14.2333 40.7167 14.6167 40.55 14.95L32.3 34.3C32.0333 34.9333 31.6167 35.4167 31.05 35.75C30.5167 36.0833 29.9167 36.25 29.25 36.25C28.6167 36.25 28.0167 36.0833 27.45 35.75C26.9167 35.4167 26.5167 34.9333 26.25 34.3L20.3 20L14.55 34.3C14.2833 34.9333 13.8667 35.4167 13.3 35.75C12.7667 36.0833 12.1667 36.25 11.5 36.25C10.8667 36.25 10.2667 36.0833 9.7 35.75C9.13333 35.4167 8.71667 34.9333 8.45 34.3L0.25 14.95C0.0833334 14.5167 7.07805e-08 14.15 7.07805e-08 13.85C7.07805e-08 13.0833 0.333333 12.4333 1 11.9C1.66667 11.3333 2.4 11.05 3.2 11.05C3.76667 11.05 4.28333 11.2 4.75 11.5C5.21667 11.8 5.56667 12.25 5.8 12.85L11.7 28.1L17.75 13C18.0167 12.3667 18.4 11.9 18.9 11.6C19.4 11.2667 19.95 11.1 20.55 11.1C21.15 11.1 21.7 11.2667 22.2 11.6C22.7 11.9 23.0833 12.3667 23.35 13L29.45 28.15L35.3 12.9ZM64.0316 29.3C64.5983 29.3 65.0483 29.5167 65.3816 29.95C65.7483 30.3833 65.9316 30.9667 65.9316 31.7C65.9316 32.7333 65.315 33.6 64.0816 34.3C62.9483 34.9333 61.665 35.45 60.2316 35.85C58.7983 36.2167 57.4316 36.4 56.1316 36.4C52.1983 36.4 49.0816 35.2667 46.7816 33C44.4816 30.7333 43.3316 27.6333 43.3316 23.7C43.3316 21.2 43.8316 18.9833 44.8316 17.05C45.8316 15.1167 47.2316 13.6167 49.0316 12.55C50.865 11.4833 52.9316 10.95 55.2316 10.95C57.4316 10.95 59.3483 11.4333 60.9816 12.4C62.615 13.3667 63.8816 14.7333 64.7816 16.5C65.6816 18.2667 66.1316 20.35 66.1316 22.75C66.1316 24.1833 65.4983 24.9 64.2316 24.9H49.4816C49.6816 27.2 50.3316 28.9 51.4316 30C52.5316 31.0667 54.1316 31.6 56.2316 31.6C57.2983 31.6 58.2316 31.4667 59.0316 31.2C59.865 30.9333 60.7983 30.5667 61.8316 30.1C62.8316 29.5667 63.565 29.3 64.0316 29.3ZM55.3816 15.35C53.6816 15.35 52.315 15.8833 51.2816 16.95C50.2816 18.0167 49.6816 19.55 49.4816 21.55H60.7816C60.715 19.5167 60.215 17.9833 59.2816 16.95C58.3483 15.8833 57.0483 15.35 55.3816 15.35ZM85.2941 10.95C87.4275 10.95 89.3108 11.4667 90.9441 12.5C92.5775 13.5333 93.8441 15 94.7441 16.9C95.6775 18.8 96.1441 21.0167 96.1441 23.55C96.1441 26.0833 95.6775 28.3333 94.7441 30.3C93.8441 32.2333 92.5608 33.7333 90.8941 34.8C89.2608 35.8667 87.3941 36.4 85.2941 36.4C83.5275 36.4 81.9441 36.0167 80.5441 35.25C79.1775 34.4833 78.1275 33.4167 77.3941 32.05V33.3C77.3941 34.2 77.1108 34.9167 76.5441 35.45C75.9775 35.9833 75.2275 36.25 74.2941 36.25C73.3608 36.25 72.6108 35.9833 72.0441 35.45C71.5108 34.9167 71.2441 34.2 71.2441 33.3V3.4C71.2441 2.53333 71.5275 1.83333 72.0941 1.3C72.6941 0.766665 73.4608 0.499998 74.3941 0.499998C75.3275 0.499998 76.0775 0.749998 76.6441 1.25C77.2108 1.75 77.4941 2.43333 77.4941 3.3V15.1C78.2275 13.7667 79.2775 12.75 80.6441 12.05C82.0108 11.3167 83.5608 10.95 85.2941 10.95ZM83.6441 31.55C85.6108 31.55 87.1441 30.85 88.2441 29.45C89.3441 28.05 89.8941 26.0833 89.8941 23.55C89.8941 21.05 89.3441 19.1333 88.2441 17.8C87.1775 16.4667 85.6441 15.8 83.6441 15.8C81.6441 15.8 80.0941 16.4833 78.9941 17.85C77.9275 19.1833 77.3941 21.1167 77.3941 23.65C77.3941 26.1833 77.9275 28.1333 78.9941 29.5C80.0941 30.8667 81.6441 31.55 83.6441 31.55ZM207.919 36.25C207.252 36.25 206.686 36.0333 206.219 35.6C205.786 35.1333 205.569 34.55 205.569 33.85C205.569 33.15 205.786 32.5833 206.219 32.15C206.686 31.6833 207.252 31.45 207.919 31.45C208.552 31.45 209.086 31.6833 209.519 32.15C209.986 32.5833 210.219 33.15 210.219 33.85C210.219 34.55 209.986 35.1333 209.519 35.6C209.086 36.0333 208.552 36.25 207.919 36.25ZM218.905 36.25C218.439 36.25 218.055 36.1167 217.755 35.85C217.489 35.5833 217.355 35.2 217.355 34.7V12.8C217.355 12.3 217.489 11.9167 217.755 11.65C218.055 11.3833 218.439 11.25 218.905 11.25C219.372 11.25 219.739 11.3833 220.005 11.65C220.272 11.9167 220.405 12.3 220.405 12.8V34.7C220.405 35.2 220.272 35.5833 220.005 35.85C219.739 36.1167 219.372 36.25 218.905 36.25ZM218.905 5.6C218.239 5.6 217.689 5.4 217.255 5C216.855 4.6 216.655 4.08333 216.655 3.45C216.655 2.78333 216.855 2.25 217.255 1.85C217.689 1.45 218.239 1.25 218.905 1.25C219.572 1.25 220.105 1.45 220.505 1.85C220.939 2.25 221.155 2.78333 221.155 3.45C221.155 4.08333 220.939 4.6 220.505 5C220.105 5.4 219.572 5.6 218.905 5.6ZM239.789 11.15C245.623 11.15 248.539 14.2833 248.539 20.55V34.7C248.539 35.1667 248.406 35.55 248.139 35.85C247.873 36.1167 247.506 36.25 247.039 36.25C246.573 36.25 246.189 36.1167 245.889 35.85C245.623 35.55 245.489 35.1667 245.489 34.7V20.75C245.489 18.35 245.006 16.6 244.039 15.5C243.073 14.4 241.539 13.85 239.439 13.85C237.039 13.85 235.106 14.5833 233.639 16.05C232.206 17.5167 231.489 19.4833 231.489 21.95V34.7C231.489 35.1667 231.356 35.55 231.089 35.85C230.823 36.1167 230.456 36.25 229.989 36.25C229.523 36.25 229.139 36.1167 228.839 35.85C228.573 35.55 228.439 35.1667 228.439 34.7V12.8C228.439 12.3333 228.573 11.9667 228.839 11.7C229.139 11.4 229.523 11.25 229.989 11.25C230.423 11.25 230.773 11.3833 231.039 11.65C231.306 11.9167 231.439 12.2833 231.439 12.75V15.9C232.206 14.3667 233.306 13.2 234.739 12.4C236.206 11.5667 237.889 11.15 239.789 11.15Z" fill="#F6F7EB"/>
<path d="M115.473 10.95C118.407 10.95 120.59 11.7833 122.023 13.45C123.457 15.1167 124.173 17.6333 124.173 21V33.3C124.173 34.2333 123.89 34.9667 123.323 35.5C122.79 36.0333 122.04 36.3 121.073 36.3C120.107 36.3 119.34 36.0333 118.773 35.5C118.207 34.9667 117.923 34.2333 117.923 33.3V21.35C117.923 19.45 117.557 18.0667 116.823 17.2C116.123 16.3333 115.007 15.9 113.473 15.9C111.673 15.9 110.223 16.4667 109.123 17.6C108.057 18.7333 107.523 20.25 107.523 22.15V33.3C107.523 34.2333 107.24 34.9667 106.673 35.5C106.107 36.0333 105.34 36.3 104.373 36.3C103.407 36.3 102.64 36.0333 102.073 35.5C101.54 34.9667 101.273 34.2333 101.273 33.3V13.95C101.273 13.0833 101.557 12.3833 102.123 11.85C102.69 11.3167 103.457 11.05 104.423 11.05C105.29 11.05 105.99 11.3167 106.523 11.85C107.09 12.35 107.373 13.0167 107.373 13.85V15.2C108.207 13.8333 109.323 12.7833 110.723 12.05C112.123 11.3167 113.707 10.95 115.473 10.95ZM149.871 29.3C150.438 29.3 150.888 29.5167 151.221 29.95C151.588 30.3833 151.771 30.9667 151.771 31.7C151.771 32.7333 151.155 33.6 149.921 34.3C148.788 34.9333 147.505 35.45 146.071 35.85C144.638 36.2167 143.271 36.4 141.971 36.4C138.038 36.4 134.921 35.2667 132.621 33C130.321 30.7333 129.171 27.6333 129.171 23.7C129.171 21.2 129.671 18.9833 130.671 17.05C131.671 15.1167 133.071 13.6167 134.871 12.55C136.705 11.4833 138.771 10.95 141.071 10.95C143.271 10.95 145.188 11.4333 146.821 12.4C148.455 13.3667 149.721 14.7333 150.621 16.5C151.521 18.2667 151.971 20.35 151.971 22.75C151.971 24.1833 151.338 24.9 150.071 24.9H135.321C135.521 27.2 136.171 28.9 137.271 30C138.371 31.0667 139.971 31.6 142.071 31.6C143.138 31.6 144.071 31.4667 144.871 31.2C145.705 30.9333 146.638 30.5667 147.671 30.1C148.671 29.5667 149.405 29.3 149.871 29.3ZM141.221 15.35C139.521 15.35 138.155 15.8833 137.121 16.95C136.121 18.0167 135.521 19.55 135.321 21.55H146.621C146.555 19.5167 146.055 17.9833 145.121 16.95C144.188 15.8833 142.888 15.35 141.221 15.35ZM165.934 36.4C162.301 36.4 159.367 35.6833 157.134 34.25C156.067 33.6167 155.534 32.7167 155.534 31.55C155.534 30.8833 155.717 30.35 156.084 29.95C156.451 29.5167 156.901 29.3 157.434 29.3C158.001 29.3 158.784 29.5667 159.784 30.1C160.851 30.6 161.817 30.9833 162.684 31.25C163.584 31.5167 164.717 31.65 166.084 31.65C167.484 31.65 168.567 31.4167 169.334 30.95C170.134 30.4833 170.534 29.8333 170.534 29C170.534 28.4333 170.367 27.9833 170.034 27.65C169.734 27.3167 169.167 27.0167 168.334 26.75C167.534 26.45 166.301 26.1167 164.634 25.75C161.667 25.15 159.534 24.3 158.234 23.2C156.967 22.1 156.334 20.5833 156.334 18.65C156.334 17.1833 156.767 15.8667 157.634 14.7C158.501 13.5 159.684 12.5833 161.184 11.95C162.717 11.2833 164.451 10.95 166.384 10.95C167.784 10.95 169.134 11.1333 170.434 11.5C171.734 11.8333 172.901 12.3333 173.934 13C175.001 13.6667 175.534 14.55 175.534 15.65C175.534 16.3167 175.351 16.8833 174.984 17.35C174.617 17.7833 174.167 18 173.634 18C173.267 18 172.901 17.9333 172.534 17.8C172.201 17.6333 171.767 17.4 171.234 17.1C170.267 16.6 169.434 16.2333 168.734 16C168.034 15.7333 167.167 15.6 166.134 15.6C164.901 15.6 163.917 15.85 163.184 16.35C162.484 16.85 162.134 17.5333 162.134 18.4C162.134 19.2333 162.501 19.8667 163.234 20.3C163.967 20.7333 165.384 21.1667 167.484 21.6C169.717 22.0667 171.467 22.6 172.734 23.2C174.001 23.8 174.901 24.55 175.434 25.45C176.001 26.35 176.284 27.5 176.284 28.9C176.284 31.1667 175.334 32.9833 173.434 34.35C171.567 35.7167 169.067 36.4 165.934 36.4ZM190.202 36.4C186.568 36.4 183.635 35.6833 181.402 34.25C180.335 33.6167 179.802 32.7167 179.802 31.55C179.802 30.8833 179.985 30.35 180.352 29.95C180.718 29.5167 181.168 29.3 181.702 29.3C182.268 29.3 183.052 29.5667 184.052 30.1C185.118 30.6 186.085 30.9833 186.952 31.25C187.852 31.5167 188.985 31.65 190.352 31.65C191.752 31.65 192.835 31.4167 193.602 30.95C194.402 30.4833 194.802 29.8333 194.802 29C194.802 28.4333 194.635 27.9833 194.302 27.65C194.002 27.3167 193.435 27.0167 192.602 26.75C191.802 26.45 190.568 26.1167 188.902 25.75C185.935 25.15 183.802 24.3 182.502 23.2C181.235 22.1 180.602 20.5833 180.602 18.65C180.602 17.1833 181.035 15.8667 181.902 14.7C182.768 13.5 183.952 12.5833 185.452 11.95C186.985 11.2833 188.718 10.95 190.652 10.95C192.052 10.95 193.402 11.1333 194.702 11.5C196.002 11.8333 197.168 12.3333 198.202 13C199.268 13.6667 199.802 14.55 199.802 15.65C199.802 16.3167 199.618 16.8833 199.252 17.35C198.885 17.7833 198.435 18 197.902 18C197.535 18 197.168 17.9333 196.802 17.8C196.468 17.6333 196.035 17.4 195.502 17.1C194.535 16.6 193.702 16.2333 193.002 16C192.302 15.7333 191.435 15.6 190.402 15.6C189.168 15.6 188.185 15.85 187.452 16.35C186.752 16.85 186.402 17.5333 186.402 18.4C186.402 19.2333 186.768 19.8667 187.502 20.3C188.235 20.7333 189.652 21.1667 191.752 21.6C193.985 22.0667 195.735 22.6 197.002 23.2C198.268 23.8 199.168 24.55 199.702 25.45C200.268 26.35 200.552 27.5 200.552 28.9C200.552 31.1667 199.602 32.9833 197.702 34.35C195.835 35.7167 193.335 36.4 190.202 36.4Z" fill="#E94F37"/>
</svg>
